<svg width="13" height="14" viewBox="0 0 13 14" fill="none" xmlns="http://www.w3.org/2000/svg">
<path d="M0.78 13.4589C0.78 13.7582 1.01237 14 1.3 14H5.9475V7.64251H0.78V13.4589ZM7.0525 14H11.7C11.9876 14 12.22 13.7582 12.22 13.4589V7.64251H7.0525V14ZM12.48 3.58454H10.0815C10.3025 3.22271 10.4325 2.79324 10.4325 2.33333C10.4325 1.04662 9.42662 0 8.19 0C7.51725 0 6.91112 0.311111 6.5 0.801449C6.08887 0.311111 5.48275 0 4.81 0C3.57337 0 2.5675 1.04662 2.5675 2.33333C2.5675 2.79324 2.69587 3.22271 2.9185 3.58454H0.52C0.232375 3.58454 0 3.82633 0 4.1256V6.49275H5.9475V3.58454H7.0525V6.49275H13V4.1256C13 3.82633 12.7676 3.58454 12.48 3.58454ZM5.9475 3.51691H4.81C4.18275 3.51691 3.6725 2.98599 3.6725 2.33333C3.6725 1.68068 4.18275 1.14976 4.81 1.14976C5.43725 1.14976 5.9475 1.68068 5.9475 2.33333V3.51691ZM8.19 3.51691H7.0525V2.33333C7.0525 1.68068 7.56275 1.14976 8.19 1.14976C8.81725 1.14976 9.3275 1.68068 9.3275 2.33333C9.3275 2.98599 8.81725 3.51691 8.19 3.51691Z" fill="url(#paint0_linear_1973_1039)"/>
<defs>
<linearGradient id="paint0_linear_1973_1039" x1="6.5" y1="0" x2="6.5" y2="14" gradientUnits="userSpaceOnUse">
<stop stop-color="#FE56C5"/>
<stop offset="1" stop-color="#AC72FF"/>
</linearGradient>
</defs>
</svg>
